<mxfile host="Electron" modified="2024-06-16T11:26:27.883Z" agent="Mozilla/5.0 (X11; Linux x86_64) AppleWebKit/537.36 (KHTML, like Gecko) draw.io/24.4.8 Chrome/124.0.6367.207 Electron/30.0.6 Safari/537.36" etag="MNJ3FiC7MVePMLbSPWJc" version="24.4.8" type="device">
  <diagram name="Page-1" id="tMPGpnKy-ZowUA-VL0b9">
    <mxGraphModel dx="773" dy="1053" grid="1" gridSize="10" guides="1" tooltips="1" connect="1" arrows="1" fold="1" page="1" pageScale="1" pageWidth="850" pageHeight="1100" math="0" shadow="0">
      <root>
        <mxCell id="0" />
        <mxCell id="1" parent="0" />
        <mxCell id="eUBzGFOjnWwHcONE-PQC-1" value="Wi-Fi" style="edgeStyle=orthogonalEdgeStyle;rounded=0;orthogonalLoop=1;jettySize=auto;html=1;dashed=1;startArrow=classic;startFill=1;verticalAlign=bottom;fontSize=14;" parent="1" source="GLRb8waI0ZLwu5YfJsHA-3" target="voaq_ugr3uCPQvjhjeNq-14" edge="1">
          <mxGeometry x="0.5663" relative="1" as="geometry">
            <Array as="points">
              <mxPoint x="85" y="90" />
            </Array>
            <mxPoint as="offset" />
          </mxGeometry>
        </mxCell>
        <mxCell id="GLRb8waI0ZLwu5YfJsHA-3" value="" style="verticalLabelPosition=bottom;html=1;verticalAlign=top;align=center;shape=mxgraph.azure.mobile;pointerEvents=1;fillColor=#dae8fc;strokeColor=#6c8ebf;" parent="1" vertex="1">
          <mxGeometry x="55" y="147.5" width="60" height="100" as="geometry" />
        </mxCell>
        <mxCell id="9_xwfOxW6TAs5Q680CRU-2" value="Cellular" style="edgeStyle=orthogonalEdgeStyle;rounded=0;orthogonalLoop=1;jettySize=auto;html=1;dashed=1;endArrow=none;endFill=0;fontSize=14;verticalAlign=bottom;" edge="1" parent="1" source="9_xwfOxW6TAs5Q680CRU-5">
          <mxGeometry x="0.4938" y="-1" relative="1" as="geometry">
            <mxPoint x="480.0322580645159" y="250" as="sourcePoint" />
            <mxPoint x="409" y="341" as="targetPoint" />
            <Array as="points">
              <mxPoint x="480" y="341" />
            </Array>
            <mxPoint as="offset" />
          </mxGeometry>
        </mxCell>
        <mxCell id="voaq_ugr3uCPQvjhjeNq-4" value="Caller" style="text;html=1;align=center;verticalAlign=middle;resizable=0;points=[];autosize=1;strokeColor=none;fillColor=none;fontSize=16;fontStyle=1" parent="1" vertex="1">
          <mxGeometry x="50" y="10" width="70" height="30" as="geometry" />
        </mxCell>
        <mxCell id="voaq_ugr3uCPQvjhjeNq-8" value="&lt;div&gt;Capture&lt;/div&gt;&lt;div&gt;PCAP&lt;/div&gt;" style="endArrow=none;html=1;rounded=0;fontSize=14;fontStyle=0;verticalAlign=bottom;edgeStyle=orthogonalEdgeStyle;labelBackgroundColor=none;align=right;" parent="1" source="GLRb8waI0ZLwu5YfJsHA-3" edge="1">
          <mxGeometry x="0.5741" width="50" height="50" relative="1" as="geometry">
            <mxPoint x="320" y="292.47" as="sourcePoint" />
            <mxPoint x="213" y="230" as="targetPoint" />
            <Array as="points">
              <mxPoint x="213" y="220" />
            </Array>
            <mxPoint as="offset" />
          </mxGeometry>
        </mxCell>
        <mxCell id="voaq_ugr3uCPQvjhjeNq-9" value="USB" style="text;html=1;align=center;verticalAlign=middle;resizable=0;points=[];autosize=1;strokeColor=none;fillColor=none;" parent="1" vertex="1">
          <mxGeometry x="160" y="220.00000000000003" width="50" height="30" as="geometry" />
        </mxCell>
        <mxCell id="voaq_ugr3uCPQvjhjeNq-10" value="Callee" style="text;html=1;align=center;verticalAlign=middle;resizable=0;points=[];autosize=1;strokeColor=none;fillColor=none;fontSize=16;fontStyle=1" parent="1" vertex="1">
          <mxGeometry x="445" y="10" width="70" height="30" as="geometry" />
        </mxCell>
        <mxCell id="voaq_ugr3uCPQvjhjeNq-11" value="&lt;div&gt;Capture&amp;nbsp;&lt;/div&gt;&lt;div&gt;PCAP&lt;/div&gt;" style="endArrow=none;html=1;rounded=0;fontStyle=0;fontSize=14;verticalAlign=bottom;edgeStyle=orthogonalEdgeStyle;labelBackgroundColor=none;align=left;" parent="1" target="9_xwfOxW6TAs5Q680CRU-5" edge="1">
          <mxGeometry x="-0.8413" width="50" height="50" relative="1" as="geometry">
            <mxPoint x="337" y="220" as="sourcePoint" />
            <mxPoint x="400" y="220.0322580645161" as="targetPoint" />
            <Array as="points">
              <mxPoint x="420" y="220" />
              <mxPoint x="420" y="220" />
            </Array>
            <mxPoint as="offset" />
          </mxGeometry>
        </mxCell>
        <mxCell id="voaq_ugr3uCPQvjhjeNq-12" value="USB" style="text;html=1;align=center;verticalAlign=middle;resizable=0;points=[];autosize=1;strokeColor=none;fillColor=none;" parent="1" vertex="1">
          <mxGeometry x="335" y="220.00000000000003" width="50" height="30" as="geometry" />
        </mxCell>
        <mxCell id="voaq_ugr3uCPQvjhjeNq-13" value="&lt;div&gt;Measurement&lt;/div&gt;&lt;div&gt;Laptop&lt;br&gt;&lt;/div&gt;" style="text;html=1;align=center;verticalAlign=middle;resizable=0;points=[];autosize=1;strokeColor=none;fillColor=none;" parent="1" vertex="1">
          <mxGeometry x="225" y="197.47000000000003" width="100" height="40" as="geometry" />
        </mxCell>
        <mxCell id="voaq_ugr3uCPQvjhjeNq-14" value="" style="points=[[0.03,0.36,0],[0.18,0,0],[0.5,0.34,0],[0.82,0,0],[0.97,0.36,0],[1,0.67,0],[0.975,0.975,0],[0.5,1,0],[0.025,0.975,0],[0,0.67,0]];verticalLabelPosition=bottom;sketch=0;html=1;verticalAlign=top;aspect=fixed;align=center;pointerEvents=1;shape=mxgraph.cisco19.wireless_access_point;fillColor=#333333;strokeColor=none;" parent="1" vertex="1">
          <mxGeometry x="235" y="40.00000000000003" width="80" height="80" as="geometry" />
        </mxCell>
        <mxCell id="voaq_ugr3uCPQvjhjeNq-16" value="&lt;div style=&quot;font-size: 14px;&quot;&gt;Wi-Fi&lt;/div&gt;" style="endArrow=classic;dashed=1;html=1;rounded=0;fontStyle=0;fontSize=14;labelBorderColor=none;textShadow=0;labelBackgroundColor=none;verticalAlign=bottom;spacing=2;edgeStyle=orthogonalEdgeStyle;startArrow=classic;startFill=1;endFill=1;" parent="1" source="voaq_ugr3uCPQvjhjeNq-14" target="9_xwfOxW6TAs5Q680CRU-5" edge="1">
          <mxGeometry x="-0.6818" width="50" height="50" relative="1" as="geometry">
            <mxPoint x="320" y="362.47" as="sourcePoint" />
            <mxPoint x="480.0322580645159" y="145" as="targetPoint" />
            <Array as="points">
              <mxPoint x="480" y="90" />
            </Array>
            <mxPoint as="offset" />
          </mxGeometry>
        </mxCell>
        <mxCell id="voaq_ugr3uCPQvjhjeNq-22" value="&lt;div&gt;Internet Access&lt;/div&gt;&lt;div&gt;via Laptop&lt;br&gt;&lt;/div&gt;" style="endArrow=none;html=1;rounded=0;fontStyle=2;fontSize=14;labelBorderColor=none;textShadow=0;labelBackgroundColor=none;verticalAlign=middle;labelPosition=right;verticalLabelPosition=middle;align=left;spacingLeft=2;edgeStyle=orthogonalEdgeStyle;" parent="1" source="voaq_ugr3uCPQvjhjeNq-6" target="voaq_ugr3uCPQvjhjeNq-14" edge="1">
          <mxGeometry width="50" height="50" relative="1" as="geometry">
            <mxPoint x="155" y="292.47" as="sourcePoint" />
            <mxPoint x="266" y="272.47" as="targetPoint" />
            <Array as="points" />
            <mxPoint as="offset" />
          </mxGeometry>
        </mxCell>
        <mxCell id="voaq_ugr3uCPQvjhjeNq-6" value="" style="verticalLabelPosition=bottom;html=1;verticalAlign=top;align=center;strokeColor=default;fillColor=#FFFFFF;shape=mxgraph.azure.laptop;pointerEvents=1;" parent="1" vertex="1">
          <mxGeometry x="200" y="177.47" width="150" height="90" as="geometry" />
        </mxCell>
        <mxCell id="eUBzGFOjnWwHcONE-PQC-12" style="edgeStyle=orthogonalEdgeStyle;rounded=0;orthogonalLoop=1;jettySize=auto;html=1;endArrow=none;endFill=0;dashed=1;" parent="1" edge="1">
          <mxGeometry relative="1" as="geometry">
            <mxPoint x="184" y="340" as="sourcePoint" />
            <mxPoint x="229" y="340" as="targetPoint" />
            <Array as="points">
              <mxPoint x="210" y="340" />
              <mxPoint x="210" y="340" />
            </Array>
          </mxGeometry>
        </mxCell>
        <mxCell id="voaq_ugr3uCPQvjhjeNq-23" value="" style="fontColor=#0066CC;verticalAlign=top;verticalLabelPosition=bottom;labelPosition=center;align=center;html=1;outlineConnect=0;fillColor=#CCCCCC;strokeColor=#333333;gradientColor=none;gradientDirection=north;strokeWidth=2;shape=mxgraph.networks.radio_tower;" parent="1" vertex="1">
          <mxGeometry x="145" y="282.47" width="55" height="100" as="geometry" />
        </mxCell>
        <mxCell id="voaq_ugr3uCPQvjhjeNq-24" value="&lt;div style=&quot;font-size: 14px;&quot;&gt;&lt;span style=&quot;background-color: initial;&quot;&gt;Cellular&lt;/span&gt;&lt;/div&gt;" style="endArrow=none;dashed=1;html=1;rounded=0;fontStyle=0;fontSize=14;labelBorderColor=none;textShadow=0;labelBackgroundColor=none;verticalAlign=bottom;edgeStyle=orthogonalEdgeStyle;" parent="1" source="GLRb8waI0ZLwu5YfJsHA-3" edge="1">
          <mxGeometry x="0.404" width="50" height="50" relative="1" as="geometry">
            <mxPoint x="110" y="232.47" as="sourcePoint" />
            <mxPoint x="161" y="341" as="targetPoint" />
            <Array as="points">
              <mxPoint x="80" y="340" />
            </Array>
            <mxPoint as="offset" />
          </mxGeometry>
        </mxCell>
        <mxCell id="RHVGhRYyqxNj4GJr4SZu-1" value="1" style="ellipse;whiteSpace=wrap;html=1;fillColor=#ffe6cc;strokeColor=#d79b00;" parent="1" vertex="1">
          <mxGeometry x="86" y="54" width="30" height="30" as="geometry" />
        </mxCell>
        <mxCell id="RHVGhRYyqxNj4GJr4SZu-3" value="2" style="ellipse;whiteSpace=wrap;html=1;fillColor=#ffe6cc;strokeColor=#d79b00;" parent="1" vertex="1">
          <mxGeometry x="85" y="282.47" width="30" height="30" as="geometry" />
        </mxCell>
        <mxCell id="eUBzGFOjnWwHcONE-PQC-2" value="&lt;span style=&quot;font-size: 15px;&quot;&gt;192.168.x.x/24&lt;/span&gt;" style="text;html=1;align=center;verticalAlign=middle;resizable=0;points=[];autosize=1;strokeColor=none;fillColor=none;spacing=0;" parent="1" vertex="1">
          <mxGeometry x="325" y="90" width="120" height="30" as="geometry" />
        </mxCell>
        <mxCell id="eUBzGFOjnWwHcONE-PQC-3" value="&lt;span style=&quot;font-size: 15px;&quot;&gt;192.168.x.x/24&lt;/span&gt;" style="text;html=1;align=center;verticalAlign=middle;resizable=0;points=[];autosize=1;strokeColor=none;fillColor=none;" parent="1" vertex="1">
          <mxGeometry x="100" y="90" width="120" height="30" as="geometry" />
        </mxCell>
        <mxCell id="eUBzGFOjnWwHcONE-PQC-8" value="1" style="ellipse;whiteSpace=wrap;html=1;fillColor=#ffe6cc;strokeColor=#d79b00;" parent="1" vertex="1">
          <mxGeometry x="445" y="54" width="30" height="30" as="geometry" />
        </mxCell>
        <mxCell id="eUBzGFOjnWwHcONE-PQC-10" value="o2" style="text;html=1;align=center;verticalAlign=middle;resizable=0;points=[];autosize=1;strokeColor=none;fillColor=none;fontSize=14;" parent="1" vertex="1">
          <mxGeometry x="76" y="342.47" width="40" height="30" as="geometry" />
        </mxCell>
        <mxCell id="eUBzGFOjnWwHcONE-PQC-13" style="edgeStyle=orthogonalEdgeStyle;rounded=0;orthogonalLoop=1;jettySize=auto;html=1;endArrow=none;endFill=0;dashed=1;" parent="1" target="voaq_ugr3uCPQvjhjeNq-6" edge="1">
          <mxGeometry relative="1" as="geometry">
            <mxPoint x="275" y="301" as="sourcePoint" />
            <Array as="points">
              <mxPoint x="275" y="281" />
              <mxPoint x="275" y="281" />
            </Array>
          </mxGeometry>
        </mxCell>
        <mxCell id="9_xwfOxW6TAs5Q680CRU-3" style="edgeStyle=orthogonalEdgeStyle;rounded=0;orthogonalLoop=1;jettySize=auto;html=1;endArrow=none;endFill=0;dashed=1;" edge="1" parent="1">
          <mxGeometry relative="1" as="geometry">
            <mxPoint x="328" y="340" as="sourcePoint" />
            <mxPoint x="386" y="341" as="targetPoint" />
            <Array as="points">
              <mxPoint x="328" y="341" />
            </Array>
          </mxGeometry>
        </mxCell>
        <mxCell id="eUBzGFOjnWwHcONE-PQC-11" value="Internet" style="ellipse;shape=cloud;whiteSpace=wrap;html=1;" parent="1" vertex="1">
          <mxGeometry x="215" y="292.47" width="120" height="80" as="geometry" />
        </mxCell>
        <mxCell id="9_xwfOxW6TAs5Q680CRU-1" value="" style="fontColor=#0066CC;verticalAlign=top;verticalLabelPosition=bottom;labelPosition=center;align=center;html=1;outlineConnect=0;fillColor=#CCCCCC;strokeColor=#333333;gradientColor=none;gradientDirection=north;strokeWidth=2;shape=mxgraph.networks.radio_tower;" vertex="1" parent="1">
          <mxGeometry x="370" y="282.47" width="55" height="100" as="geometry" />
        </mxCell>
        <mxCell id="9_xwfOxW6TAs5Q680CRU-4" value="Telekom" style="text;html=1;align=center;verticalAlign=middle;resizable=0;points=[];autosize=1;strokeColor=none;fillColor=none;fontSize=14;spacing=0;" vertex="1" parent="1">
          <mxGeometry x="418" y="342.47" width="70" height="30" as="geometry" />
        </mxCell>
        <mxCell id="9_xwfOxW6TAs5Q680CRU-5" value="" style="verticalLabelPosition=bottom;html=1;verticalAlign=top;align=center;shape=mxgraph.azure.mobile;pointerEvents=1;fillColor=#dae8fc;strokeColor=#6c8ebf;" vertex="1" parent="1">
          <mxGeometry x="450" y="147.50000000000003" width="60" height="100" as="geometry" />
        </mxCell>
        <mxCell id="9_xwfOxW6TAs5Q680CRU-6" value="2" style="ellipse;whiteSpace=wrap;html=1;fillColor=#ffe6cc;strokeColor=#d79b00;" vertex="1" parent="1">
          <mxGeometry x="445" y="283.47" width="30" height="30" as="geometry" />
        </mxCell>
        <mxCell id="9_xwfOxW6TAs5Q680CRU-7" value="3" style="ellipse;whiteSpace=wrap;html=1;fillColor=#ffe6cc;strokeColor=#d79b00;" vertex="1" parent="1">
          <mxGeometry x="235" y="130.00000000000003" width="30" height="30" as="geometry" />
        </mxCell>
      </root>
    </mxGraphModel>
  </diagram>
</mxfile>
